<svg xmlns="http://www.w3.org/2000/svg" xmlns:xlink="http://www.w3.org/1999/xlink" viewBox="0 0 391.4 489"><defs><path id="a" d="M0 0h391.4v489H0z"/></defs><clipPath id="b"><use xlink:href="#a" overflow="visible"/></clipPath><path d="M391.3 422.7l-28-315.3c-.6-7-6.5-12.3-13.4-12.3h-57.6C291.5 42.5 248.5 0 195.7 0S99.9 42.5 99.1 95.1H41.5c-7 0-12.8 5.3-13.4 12.3L.1 422.7c0 .4-.1.8-.1 1.2C0 459.8 32.9 489 73.4 489H318c40.5 0 73.4-29.2 73.4-65.1 0-.4 0-.8-.1-1.2M195.7 27c37.9 0 68.8 30.4 69.6 68.1H126.1c.8-37.7 31.7-68.1 69.6-68.1M318 462H73.4c-25.4 0-46-16.8-46.4-37.5l26.8-302.3H99v41c0 7.5 6 13.5 13.5 13.5s13.5-6 13.5-13.5v-41h139.3v41c0 7.5 6 13.5 13.5 13.5s13.5-6 13.5-13.5v-41h45.2l26.9 302.3C364 445.2 343.3 462 318 462" clip-path="url(#b)" fill="#fff"/></svg>