<svg xmlns="http://www.w3.org/2000/svg" viewBox="0 0 106 97.7"><circle cx="9.2" cy="16.6" r="5.2" fill="#fff"/><circle cx="100.8" cy="25.7" r="5.2" fill="#fff"/><circle cx="60.1" cy="25.7" r="5.2" fill="#fff"/><circle cx="34.9" cy="5.5" r="5.2" fill="#fff"/><circle cx="85.8" cy="5.2" r="5.2" fill="#fff"/><circle cx="20.6" cy="8.1" r="2.6" fill="#fff"/><circle cx="29.2" cy="28.3" r="2.6" fill="#fff"/><circle cx="2.6" cy="28.3" r="2.6" fill="#fff"/><circle cx="43.2" cy="20.5" r="2.6" fill="#fff"/><circle cx="88.5" cy="28.3" r="2.6" fill="#fff"/><circle cx="74.7" cy="20.5" r="2.6" fill="#fff"/><circle cx="67.1" cy="2.6" r="2.6" fill="#fff"/><circle cx="103.4" cy="5.5" r="2.6" fill="#fff"/><circle cx="2.6" cy="3.9" r="2.6" fill="#fff"/><circle cx="8.3" cy="81.7" r="5.2" fill="#fff"/><circle cx="83.2" cy="83" r="5.2" fill="#fff"/><circle cx="98.3" cy="92.4" r="5.2" fill="#fff"/><circle cx="61.9" cy="89.6" r="5.2" fill="#fff"/><circle cx="43.2" cy="72" r="5.2" fill="#fff"/><circle cx="20.6" cy="74.6" r="2.6" fill="#fff"/><circle cx="62.7" cy="69.3" r="2.6" fill="#fff"/><circle cx="43.2" cy="87" r="2.6" fill="#fff"/><circle cx="101" cy="72" r="2.6" fill="#fff"/><circle cx="85.8" cy="69.3" r="2.6" fill="#fff"/><circle cx="78" cy="95.1" r="2.6" fill="#fff"/><circle cx="29.2" cy="94.8" r="2.6" fill="#fff"/><circle cx="2.6" cy="94.8" r="2.6" fill="#fff"/><circle cx="2.6" cy="69.3" r="2.6" fill="#fff"/><path d="M101 51.8H5.2c-1.7 0-3-1.3-3-3s1.3-3 3-3H101c1.7 0 3 1.3 3 3s-1.4 3-3 3z" fill="#fff"/></svg>