<svg xmlns="http://www.w3.org/2000/svg" viewBox="0 0 556.7 55.7"><g fill="#fff"><path d="M42.6 1.2c.3.3.5.8.5 1.4s-.2 1-.5 1.4-.8.5-1.4.5H23.6V53c0 .6-.2 1.1-.6 1.5-.4.4-.9.6-1.5.6s-1.1-.2-1.5-.6c-.4-.4-.6-.9-.6-1.5V4.4H1.9c-.6 0-1-.2-1.4-.5S0 3.1 0 2.6s.2-1 .5-1.4C.8.9 1.3.7 1.9.7h39.4c.5 0 .9.2 1.3.5zM104.9 1.3c.4-.4.9-.6 1.5-.6s1 .2 1.5.6c.4.4.6.9.6 1.5v50.1c0 .6-.2 1.1-.6 1.5-.4.4-.9.6-1.5.6s-1.1-.2-1.5-.6c-.4-.4-.6-.9-.6-1.5V29.5H69.2v23.4c0 .6-.2 1.1-.6 1.5-.4.4-.9.6-1.5.6s-1.1-.2-1.5-.6c-.4-.4-.6-.9-.6-1.5V2.8c0-.6.2-1.1.6-1.5.4-.4.9-.6 1.5-.6s1.1.2 1.5.6c.4.4.6.9.6 1.5v22.9h35.1V2.8c0-.6.2-1.1.6-1.5zM235.8 54.4c-.4.4-.9.6-1.5.6s-1.1-.2-1.5-.6c-.4-.4-.6-.9-.6-1.5V2.8c0-.6.2-1.2.6-1.5.4-.4.9-.6 1.5-.6h13.9c3.3 0 6.3.7 9 2.2 2.6 1.5 4.7 3.5 6.2 6.2 1.5 2.6 2.2 5.6 2.2 9 0 3.4-.7 6.4-2.2 9-1.5 2.6-3.5 4.7-6.2 6.2-2.6 1.5-5.6 2.2-9 2.2h-11.8v17.4c-.1.6-.3 1.1-.6 1.5zM255 29.7c2-1.1 3.6-2.7 4.7-4.7s1.7-4.3 1.7-6.8-.6-4.8-1.7-6.8-2.7-3.6-4.7-4.7-4.3-1.7-6.8-1.7h-11.8v26.5h11.8c2.5-.1 4.8-.7 6.8-1.8zM373.8 2.4c2.8 1.6 4.9 3.6 6.3 5.8.2.3.3.7.3 1.1 0 .4-.1.7-.3 1-.2.3-.5.5-.9.7-.2.1-.5.1-.8.1-.8 0-1.5-.3-1.9-1-2.7-4-6.7-6-11.9-6-3.8 0-6.8.9-9 2.6s-3.2 4.2-3.2 7.3c0 2.6 1.1 4.8 3.2 6.5 2.1 1.8 5.4 3 9.9 3.8 5.8 1 10.1 2.8 12.8 5.4 2.7 2.6 4 6.1 4 10.3 0 3.2-.7 6-2.1 8.3-1.4 2.4-3.4 4.2-6 5.4s-5.6 1.9-8.9 1.9c-4.4 0-8.1-.9-11.3-2.7-3.2-1.8-5.6-4.2-7.2-7.3-.1-.3-.2-.6-.2-.8 0-.6.2-1 .6-1.4.4-.4.9-.6 1.6-.6.9 0 1.6.4 2 1.3 1.3 2.3 3.1 4.1 5.6 5.4 2.5 1.3 5.5 1.9 8.9 1.9 4 0 7.1-1 9.4-3 2.3-2 3.4-4.8 3.4-8.5 0-3.2-1.1-5.8-3.4-7.8-2.2-2.1-5.6-3.4-10-4-5.1-.7-9.2-2.4-12.1-5-2.9-2.6-4.4-5.8-4.4-9.6 0-2.7.7-5.1 2.1-7.1 1.4-2.1 3.3-3.7 5.8-4.8 2.5-1.1 5.3-1.7 8.6-1.7 3.1.1 6.2.9 9.1 2.5zM441.4 1.2c.3.3.5.8.5 1.4s-.2 1-.5 1.4-.8.5-1.4.5h-17.6V53c0 .6-.2 1.1-.6 1.5-.4.4-.9.6-1.5.6s-1.1-.2-1.5-.6c-.4-.4-.6-.9-.6-1.5V4.4h-17.6c-.6 0-1-.2-1.4-.5s-.5-.8-.5-1.4.2-1 .5-1.4c.3-.3.8-.5 1.4-.5H440c.6.1 1 .3 1.4.6zM556.2 1.3c.3.4.5.8.5 1.4 0 .5-.1 1-.3 1.3l-19.2 30.7v18.2c0 .6-.2 1.1-.6 1.5-.4.4-.9.6-1.5.6s-1.1-.2-1.5-.6c-.4-.4-.6-.9-.6-1.5V34.7L513.8 4c-.3-.5-.4-.9-.4-1.3 0-.6.2-1 .6-1.4.4-.4.9-.6 1.5-.6s1.2.3 1.7.8l18 29.3L552.8 2c.3-.5.6-.9.9-1 .3-.2.7-.3 1.1-.3.6 0 1 .2 1.4.6zM496.8 51.8l-12-19.1c3.6-1 6.4-2.9 8.5-5.7 2.1-2.8 3.2-6 3.2-9.8 0-3.2-.7-6-2.2-8.6-1.5-2.5-3.5-4.4-6.2-5.8-2.6-1.4-5.6-2.1-9-2.1h-13.3c-.6 0-1.1.2-1.5.6-.4.4-.6.9-.6 1.5v50.1c0 .6.2 1.1.6 1.5.4.4.9.6 1.5.6s1.2-.2 1.5-.6c.4-.4.6-.9.6-1.5v-48h11.2c2.5 0 4.8.5 6.8 1.6 2 1 3.6 2.5 4.7 4.4 1.1 1.9 1.7 4 1.7 6.4 0 2.3-.6 4.4-1.7 6.3-1.1 1.9-2.7 3.3-4.7 4.3-.9.4-1.8.8-2.8 1-1.1.3-2.2.4-3.1.5-1 .1-1.6 1.2-1 2.1l14.1 22.6c.2.4.5.6.8.8.3.2.6.3 1.1.3.7 0 1.3-.1 1.7-.4.4-.3.6-.7.6-1.2.1-.6-.1-1.2-.5-1.8zM326.8 52L305.7 2.2c-.4-1-1.1-1.5-2-1.5-1 0-1.6.5-2 1.5L280.6 52c-.1.3-.2.6-.2.9 0 .6.2 1 .6 1.5.4.4.9.6 1.5.6 1 0 1.6-.4 1.9-1.3l19.3-46.1L323 53.7c.4.9 1 1.3 1.9 1.3.6 0 1-.2 1.5-.6.4-.4.6-.9.6-1.5.1-.3 0-.6-.2-.9z"/></g><path d="M171.3 55.2h-32.4c-1.4 0-2.5-1.1-2.5-2.5s1.1-2.5 2.5-2.5h32.4c1.4 0 2.5 1.1 2.5 2.5s-1.1 2.5-2.5 2.5zM162.7 30.7h-23.8c-1.4 0-2.5-1.1-2.5-2.5s1.1-2.5 2.5-2.5h23.8c1.4 0 2.5 1.1 2.5 2.5s-1.1 2.5-2.5 2.5zM171.3 5.2h-32.4c-1.4 0-2.5-1.1-2.5-2.5s1.1-2.5 2.5-2.5h32.4c1.4 0 2.5 1.1 2.5 2.5s-1.1 2.5-2.5 2.5z" fill="#f40611"/></svg>